
        <svg xmlns="http://www.w3.org/2000/svg" xmlns:xlink="http://www.w3.org/1999/xlink" version="1.1" width="3162.0810405202596" height="645.3226613306653" viewBox="0 0 3162.0810405202596 645.3226613306653">
			
			<g transform="scale(8.104052026013006) translate(10, 10)">
				<defs id="SvgjsDefs1805"/><g id="SvgjsG1806" featureKey="symbolFeature-0" transform="matrix(1.2962962962962963,0,0,1.2962962962962963,-9.074074074074074,-11.666666666666666)" fill="#000"><metadata xmlns="http://www.w3.org/2000/svg"><sfw xmlns="http://ns.adobe.com/SaveForWeb/1.0/"><slices><slicesourcebounds y="-8160" x="-8165" width="16389" height="16384" bottomleftorigin="true"/><optimizationsettings><targetsettings fileformat="PNG24Format" targetsettingsid="0"><png24format transparency="true" mattecolor="" nomattecolor="false" interlaced="false" filtered="false"/></targetsettings></optimizationsettings></slices></sfw></metadata><g xmlns="http://www.w3.org/2000/svg"><path d="M56,9H8c-0.552,0-1,0.448-1,1v44c0,0.553,0.448,1,1,1h48c0.553,0,1-0.447,1-1V10C57,9.448,56.553,9,56,9z M30.707,32.707   l-10,10C20.512,42.902,20.256,43,20,43s-0.512-0.098-0.707-0.293c-0.391-0.391-0.391-1.023,0-1.414L28.586,32l-9.293-9.293   c-0.391-0.391-0.391-1.023,0-1.414s1.023-0.391,1.414,0l10,10C31.098,31.684,31.098,32.316,30.707,32.707z M44,43H34   c-0.553,0-1-0.447-1-1s0.447-1,1-1h10c0.553,0,1,0.447,1,1S44.553,43,44,43z"/></g></g><g id="SvgjsG1807" featureKey="nameFeature-0" transform="matrix(1.1409233274695385,0,0,1.1409233274695385,80.39066980054584,0.9974882488857517)" fill="#000"><path d="M7.12 13.719999999999999 l0 10.48 l13.72 0 l0 2.8 l-13.72 0 l0 13 l-3.08 0 l0 -29.16 l18.08 0 l0 2.88 l-15 0 z M49.16 40 l-3.2 -7.44 l-15.88 0 l-3.2 7.44 l-3.12 0 l12.56 -29.16 l3.48 0 l12.6 29.16 l-3.24 0 z M44.8 29.759999999999998 l-6.8 -15.76 l-6.76 15.76 l13.56 0 z M64.64 40.28 c-2.76 0 -5.4 -1.04 -7.12 -2.56 c-1.8 -1.56 -2.96 -3.64 -3.2 -5.68 l2.88 -0.8 c0.32 1.72 1.2 3.16 2.64 4.36 c1.4 1.2 3 1.8 4.8 1.8 c1.68 0 3.24 -0.4 4.48 -1.28 c1.24 -0.84 2.04 -2.28 2.04 -4.04 c0 -2.04 -1.08 -3.36 -2.44 -4.16 c-0.96 -0.56 -1.8 -0.8 -2.76 -1 l-3.84 -0.76 c-0.8 -0.16 -1.64 -0.44 -2.56 -0.84 c-0.92 -0.44 -1.72 -0.96 -2.4 -1.64 c-1.36 -1.32 -2.04 -3 -2.04 -5.04 c0 -1.6 0.44 -3.04 1.32 -4.28 c0.88 -1.28 2 -2.2 3.4 -2.88 c1.4 -0.64 2.88 -0.96 4.52 -0.96 c6.28 0 9.04 3.88 9.64 7 l-2.8 0.88 c-0.48 -2.08 -2.36 -5.04 -6.88 -5.04 c-3.12 -0.08 -6.16 2.12 -6.12 5.16 c0 2.24 1.4 4.04 4.24 4.6 l3.68 0.72 c2.48 0.48 4.4 1.32 5.68 2.56 c0.88 0.8 1.52 1.72 1.92 2.68 c0.4 1 0.6 1.88 0.6 2.68 c0.04 5.12 -4.28 8.64 -9.68 8.52 z M89.99999999999999 13.719999999999999 l0 26.28 l-3.04 0 l0 -26.28 l-9.76 0 l0 -2.88 l22.56 0 l0 2.88 l-9.76 0 z M141.04 10.84 l4.4 0 l0 29.16 l-3.04 0 l0 -25 l0 0 l-10.84 25 l-2.76 0 l-10.76 -24.8 l0 0 l0 24.8 l-3.04 0 l0 -29.16 l4.36 0 l10.88 25 z M153.55999999999997 40 l0 -29.16 l3.08 0 l0 29.16 l-3.08 0 z M185.48 10.84 l3 0 l0 29.16 l-3.32 0 l-17.4 -24.8 l0 24.8 l-3.04 0 l0 -29.16 l3.56 0 l17.2 24.52 l0 -24.52 z M196.59999999999997 40 l0 -29.16 l3.08 0 l0 29.16 l-3.08 0 z M210.83999999999997 13.719999999999999 l0 10.48 l13.72 0 l0 2.8 l-13.72 0 l0 13 l-3.08 0 l0 -29.16 l18.08 0 l0 2.88 l-15 0 z M241.19999999999996 24.8 l9.32 -13.96 l3.48 0 l-11.28 16.84 l0 12.32 l-3.12 0 l0 -12.28 l-11.28 -16.88 l3.68 0 z"/></g>
			</g>
		</svg>
	